<svg xmlns="http://www.w3.org/2000/svg" width="1228.3251953125" height="718.0774536132812" viewBox="-540.149658203125 -267.16046142578125 1228.3251953125 718.0774536132812"><title>Neo4j Graph Visualization</title><desc>Created using Neo4j (http://www.neo4j.com/)</desc><g class="layer relationships"><g class="relationship" transform="translate(507 -51.99945645486925) rotate(532.2838791408338)"><path class="outline" fill="#FF756E" stroke="none" d="M 40 2.5 L 40.36954368516446 2.5 L 40.36954368516446 -2.5 L 40 -2.5 Z M 83.70548118516446 2.5 L 84.07502487032892 2.5 L 84.07502487032892 5.5 L 95.07502487032892 0 L 84.07502487032892 -5.5 L 84.07502487032892 -2.5 L 83.70548118516446 -2.5 Z"/><text text-anchor="middle" pointer-events="none" font-size="8px" fill="#000000" x="62.03751243516446" y="3" transform="rotate(180 62.03751243516446 0)" font-family="sans-serif">MANAG…</text></g><g class="relationship" transform="translate(507 -51.99945645486925) rotate(519.6235346709167)"><path class="outline" fill="#FF756E" stroke="none" d="M 40 2.5 L 254.34131867857934 2.5 L 254.34131867857934 -2.5 L 40 -2.5 Z M 316.34913117857934 2.5 L 530.6904498571587 2.5 L 530.6904498571587 5.5 L 541.6904498571587 0 L 530.6904498571587 -5.5 L 530.6904498571587 -2.5 L 316.34913117857934 -2.5 Z"/><text text-anchor="middle" pointer-events="none" font-size="8px" fill="#000000" x="285.34522492857934" y="3" transform="rotate(180 285.34522492857934 0)" font-family="sans-serif">MANAGER_OF</text></g><g class="relationship" transform="translate(507 -51.99945645486925) rotate(430.89999207677795)"><path class="outline" fill="#FF756E" stroke="none" d="M 40 2.5 L 41.45102482633425 2.5 L 41.45102482633425 -2.5 L 40 -2.5 Z M 62.11508732633425 2.5 L 63.566112152668495 2.5 L 63.566112152668495 5.5 L 74.5661121526685 0 L 63.566112152668495 -5.5 L 63.566112152668495 -2.5 L 62.11508732633425 -2.5 Z"/><text text-anchor="middle" pointer-events="none" font-size="8px" fill="#000000" x="51.78305607633425" y="3" font-family="sans-serif">M…</text></g><g class="relationship" transform="translate(507 -51.99945645486925) rotate(407.79213422567926)"><path class="outline" fill="#FF756E" stroke="none" d="M 40 2.5 L 55.061545582635375 2.5 L 55.061545582635375 -2.5 L 40 -2.5 Z M 117.06935808263538 2.5 L 132.13090366527075 2.5 L 132.13090366527075 5.5 L 143.13090366527075 0 L 132.13090366527075 -5.5 L 132.13090366527075 -2.5 L 117.06935808263538 -2.5 Z"/><text text-anchor="middle" pointer-events="none" font-size="8px" fill="#000000" x="86.06545183263538" y="3" font-family="sans-serif">MANAGER_OF</text></g><g class="relationship" transform="translate(507 -51.99945645486925) rotate(342.461315099898)"><path class="outline" fill="#FF756E" stroke="none" d="M 40 2.5 L 41.8005965454868 2.5 L 41.8005965454868 -2.5 L 40 -2.5 Z M 90.4724715454868 2.5 L 92.2730680909736 2.5 L 92.2730680909736 5.5 L 103.2730680909736 0 L 92.2730680909736 -5.5 L 92.2730680909736 -2.5 L 90.4724715454868 -2.5 Z"/><text text-anchor="middle" pointer-events="none" font-size="8px" fill="#000000" x="66.1365340454868" y="3" font-family="sans-serif">MANAGE…</text></g><g class="relationship" transform="translate(507 -51.99945645486925) rotate(378.84755993821403)"><path class="outline" fill="#FF756E" stroke="none" d="M 40 2.5 L 42.63776595121537 2.5 L 42.63776595121537 -2.5 L 40 -2.5 Z M 91.30964095121537 2.5 L 93.94740690243074 2.5 L 93.94740690243074 5.5 L 104.94740690243074 0 L 93.94740690243074 -5.5 L 93.94740690243074 -2.5 L 91.30964095121537 -2.5 Z"/><text text-anchor="middle" pointer-events="none" font-size="8px" fill="#000000" x="66.97370345121537" y="3" font-family="sans-serif">MANAGE…</text></g><g class="relationship" transform="translate(507 -51.99945645486925) rotate(306.4372252009282)"><path class="outline" fill="#FF756E" stroke="none" d="M 40 2.5 L 41.02184695245211 2.5 L 41.02184695245211 -2.5 L 40 -2.5 Z M 95.47106570245211 2.5 L 96.49291265490422 2.5 L 96.49291265490422 5.5 L 107.49291265490422 0 L 96.49291265490422 -5.5 L 96.49291265490422 -2.5 L 95.47106570245211 -2.5 Z"/><text text-anchor="middle" pointer-events="none" font-size="8px" fill="#000000" x="68.24645632745211" y="3" font-family="sans-serif">MANAGER…</text></g><g class="relationship" transform="translate(507 -51.99945645486925) rotate(274.85074756855585)"><path class="outline" fill="#FF756E" stroke="none" d="M 40 2.5 L 49.38421058468744 2.5 L 49.38421058468744 -2.5 L 40 -2.5 Z M 111.39202308468744 2.5 L 120.77623366937488 2.5 L 120.77623366937488 5.5 L 131.77623366937488 0 L 120.77623366937488 -5.5 L 120.77623366937488 -2.5 L 111.39202308468744 -2.5 Z"/><text text-anchor="middle" pointer-events="none" font-size="8px" fill="#000000" x="80.38811683468744" y="3" font-family="sans-serif">MANAGER_OF</text></g><g class="relationship" transform="translate(507 -51.99945645486925) rotate(240.01941397657055)"><path class="outline" fill="#FF756E" stroke="none" d="M 40 2.5 L 62.25333483804691 2.5 L 62.25333483804691 -2.5 L 40 -2.5 Z M 124.26114733804691 2.5 L 146.51448217609382 2.5 L 146.51448217609382 5.5 L 157.51448217609382 0 L 146.51448217609382 -5.5 L 146.51448217609382 -2.5 L 124.26114733804691 -2.5 Z"/><text text-anchor="middle" pointer-events="none" font-size="8px" fill="#000000" x="93.25724108804691" y="3" transform="rotate(180 93.25724108804691 0)" font-family="sans-serif">MANAGER_OF</text></g><g class="relationship" transform="translate(507 -51.99945645486925) rotate(213.63660157637997)"><path class="outline" fill="#FF756E" stroke="none" d="M 40 2.5 L 42.1600848257644 2.5 L 42.1600848257644 -2.5 L 40 -2.5 Z M 104.1678973257644 2.5 L 106.3279821515288 2.5 L 106.3279821515288 5.5 L 117.3279821515288 0 L 106.3279821515288 -5.5 L 106.3279821515288 -2.5 L 104.1678973257644 -2.5 Z"/><text text-anchor="middle" pointer-events="none" font-size="8px" fill="#000000" x="73.1639910757644" y="3" transform="rotate(180 73.1639910757644 0)" font-family="sans-serif">MANAGER_OF</text></g><g class="relationship" transform="translate(507 -51.99945645486925) rotate(247.42363076777139)"><path class="outline" fill="#FF756E" stroke="none" d="M 40 2.5 L 49.39862111589468 2.5 L 49.39862111589468 -2.5 L 40 -2.5 Z M 49.39862111589468 2.5 L 58.797242231789355 2.5 L 58.797242231789355 5.5 L 69.79724223178935 0 L 58.797242231789355 -5.5 L 58.797242231789355 -2.5 L 49.39862111589468 -2.5 Z"/><text text-anchor="middle" pointer-events="none" font-size="8px" fill="#000000" x="49.39862111589468" y="3" transform="rotate(180 49.39862111589468 0)" font-family="sans-serif"/></g><g class="relationship" transform="translate(507 -51.99945645486925) rotate(475.2962702577952)"><path class="outline" fill="#FF756E" stroke="none" d="M 40 2.5 L 41.57965509100299 2.5 L 41.57965509100299 -2.5 L 40 -2.5 Z M 96.02887384100299 2.5 L 97.60852893200598 2.5 L 97.60852893200598 5.5 L 108.60852893200598 0 L 97.60852893200598 -5.5 L 97.60852893200598 -2.5 L 96.02887384100299 -2.5 Z"/><text text-anchor="middle" pointer-events="none" font-size="8px" fill="#000000" x="68.80426446600299" y="3" transform="rotate(180 68.80426446600299 0)" font-family="sans-serif">MANAGER…</text></g><g class="relationship" transform="translate(507 -51.99945645486925) rotate(448.383011930496)"><path class="outline" fill="#FF756E" stroke="none" d="M 40 2.5 L 59.60195424940214 2.5 L 59.60195424940214 -2.5 L 40 -2.5 Z M 121.60976674940214 2.5 L 141.21172099880428 2.5 L 141.21172099880428 5.5 L 152.21172099880428 0 L 141.21172099880428 -5.5 L 141.21172099880428 -2.5 L 121.60976674940214 -2.5 Z"/><text text-anchor="middle" pointer-events="none" font-size="8px" fill="#000000" x="90.60586049940214" y="3" font-family="sans-serif">MANAGER_OF</text></g><g class="relationship" transform="translate(-38.29122172735475 150.53760919513113) rotate(343.2435567963214)"><path class="outline" fill="#FF756E" stroke="none" d="M 40 2.5 L 41.590599640168776 2.5 L 41.590599640168776 -2.5 L 40 -2.5 Z M 73.36794339016878 2.5 L 74.95854303033755 2.5 L 74.95854303033755 5.5 L 85.95854303033755 0 L 74.95854303033755 -5.5 L 74.95854303033755 -2.5 L 73.36794339016878 -2.5 Z"/><text text-anchor="middle" pointer-events="none" font-size="8px" fill="#000000" x="57.479271515168776" y="3" font-family="sans-serif">MAN…</text></g><g class="relationship" transform="translate(-38.29122172735475 150.53760919513113) rotate(456.8415126753866)"><path class="outline" fill="#FF756E" stroke="none" d="M 40 2.5 L 85.74350759362497 2.5 L 85.74350759362497 -2.5 L 40 -2.5 Z M 147.75132009362497 2.5 L 193.49482768724994 2.5 L 193.49482768724994 5.5 L 204.49482768724994 0 L 193.49482768724994 -5.5 L 193.49482768724994 -2.5 L 147.75132009362497 -2.5 Z"/><text text-anchor="middle" pointer-events="none" font-size="8px" fill="#000000" x="116.74741384362497" y="3" transform="rotate(180 116.74741384362497 0)" font-family="sans-serif">MANAGER_OF</text></g><g class="relationship" transform="translate(-38.29122172735475 150.53760919513113) rotate(376.8881305409229)"><path class="outline" fill="#FF756E" stroke="none" d="M 40 2.5 L 43.77930501244256 2.5 L 43.77930501244256 -2.5 L 40 -2.5 Z M 105.78711751244256 2.5 L 109.56642252488513 2.5 L 109.56642252488513 5.5 L 120.56642252488513 0 L 109.56642252488513 -5.5 L 109.56642252488513 -2.5 L 105.78711751244256 -2.5 Z"/><text text-anchor="middle" pointer-events="none" font-size="8px" fill="#000000" x="74.78321126244256" y="3" font-family="sans-serif">MANAGER_OF</text></g><g class="relationship" transform="translate(-38.29122172735475 150.53760919513113) rotate(418.03777616213404)"><path class="outline" fill="#FF756E" stroke="none" d="M 40 2.5 L 73.3808744311882 2.5 L 73.3808744311882 -2.5 L 40 -2.5 Z M 135.3886869311882 2.5 L 168.7695613623764 2.5 L 168.7695613623764 5.5 L 179.7695613623764 0 L 168.7695613623764 -5.5 L 168.7695613623764 -2.5 L 135.3886869311882 -2.5 Z"/><text text-anchor="middle" pointer-events="none" font-size="8px" fill="#000000" x="104.3847806811882" y="3" font-family="sans-serif">MANAGER_OF</text></g><g class="relationship" transform="translate(-38.29122172735475 150.53760919513113) rotate(436.84629577404394)"><path class="outline" fill="#FF756E" stroke="none" d="M 40 2.5 L 95.13970233928268 2.5 L 95.13970233928268 -2.5 L 40 -2.5 Z M 157.14751483928268 2.5 L 212.28721717856536 2.5 L 212.28721717856536 5.5 L 223.28721717856536 0 L 212.28721717856536 -5.5 L 212.28721717856536 -2.5 L 157.14751483928268 -2.5 Z"/><text text-anchor="middle" pointer-events="none" font-size="8px" fill="#000000" x="126.14360858928268" y="3" font-family="sans-serif">MANAGER_OF</text></g><g class="relationship" transform="translate(-38.29122172735475 150.53760919513113) rotate(410.87850098174437)"><path class="outline" fill="#FF756E" stroke="none" d="M 40 2.5 L 42.2308350912577 2.5 L 42.2308350912577 -2.5 L 40 -2.5 Z M 79.3441163412577 2.5 L 81.5749514325154 2.5 L 81.5749514325154 5.5 L 92.5749514325154 0 L 81.5749514325154 -5.5 L 81.5749514325154 -2.5 L 79.3441163412577 -2.5 Z"/><text text-anchor="middle" pointer-events="none" font-size="8px" fill="#000000" x="60.7874757162577" y="3" font-family="sans-serif">MANA…</text></g><g class="relationship" transform="translate(-38.29122172735475 150.53760919513113) rotate(394.9415988777421)"><path class="outline" fill="#FF756E" stroke="none" d="M 40 2.5 L 77.23042958618187 2.5 L 77.23042958618187 -2.5 L 40 -2.5 Z M 139.23824208618186 2.5 L 176.46867167236374 2.5 L 176.46867167236374 5.5 L 187.46867167236374 0 L 176.46867167236374 -5.5 L 176.46867167236374 -2.5 L 139.23824208618186 -2.5 Z"/><text text-anchor="middle" pointer-events="none" font-size="8px" fill="#000000" x="108.23433583618187" y="3" font-family="sans-serif">MANAGER_OF</text></g><g class="relationship" transform="translate(-38.29122172735475 150.53760919513113) rotate(440.9858352140604)"><path class="outline" fill="#FF756E" stroke="none" d="M 40 2.5 L 51.04048045864165 2.5 L 51.04048045864165 -2.5 L 40 -2.5 Z M 113.04829295864165 2.5 L 124.0887734172833 2.5 L 124.0887734172833 5.5 L 135.0887734172833 0 L 124.0887734172833 -5.5 L 124.0887734172833 -2.5 L 113.04829295864165 -2.5 Z"/><text text-anchor="middle" pointer-events="none" font-size="8px" fill="#000000" x="82.04438670864165" y="3" font-family="sans-serif">MANAGER_OF</text></g><g class="relationship" transform="translate(-38.29122172735475 150.53760919513113) rotate(328.683949112798)"><path class="outline" fill="#FF756E" stroke="none" d="M 40 2.5 L 66.62507508982083 2.5 L 66.62507508982083 -2.5 L 40 -2.5 Z M 128.63288758982083 2.5 L 155.25796267964165 2.5 L 155.25796267964165 5.5 L 166.25796267964165 0 L 155.25796267964165 -5.5 L 155.25796267964165 -2.5 L 128.63288758982083 -2.5 Z"/><text text-anchor="middle" pointer-events="none" font-size="8px" fill="#000000" x="97.62898133982083" y="3" font-family="sans-serif">MANAGER_OF</text></g><g class="relationship" transform="translate(-38.29122172735475 150.53760919513113) rotate(353.52532615100756)"><path class="outline" fill="#FF756E" stroke="none" d="M 40 2.5 L 68.93205830657537 2.5 L 68.93205830657537 -2.5 L 40 -2.5 Z M 130.93987080657536 2.5 L 159.87192911315074 2.5 L 159.87192911315074 5.5 L 170.87192911315074 0 L 159.87192911315074 -5.5 L 159.87192911315074 -2.5 L 130.93987080657536 -2.5 Z"/><text text-anchor="middle" pointer-events="none" font-size="8px" fill="#000000" x="99.93596455657537" y="3" font-family="sans-serif">MANAGER_OF</text></g><g class="relationship" transform="translate(-38.29122172735475 150.53760919513113) rotate(279.19888438346356)"><path class="outline" fill="#FF756E" stroke="none" d="M 40 2.5 L 59.38155273427277 2.5 L 59.38155273427277 -2.5 L 40 -2.5 Z M 121.38936523427277 2.5 L 140.77091796854555 2.5 L 140.77091796854555 5.5 L 151.77091796854555 0 L 140.77091796854555 -5.5 L 140.77091796854555 -2.5 L 121.38936523427277 -2.5 Z"/><text text-anchor="middle" pointer-events="none" font-size="8px" fill="#000000" x="90.38545898427277" y="3" font-family="sans-serif">MANAGER_OF</text></g><g class="relationship" transform="translate(-38.29122172735475 150.53760919513113) rotate(269.18888109411444)"><path class="outline" fill="#FF756E" stroke="none" d="M 40 2.5 L 47.14405649382126 2.5 L 47.14405649382126 -2.5 L 40 -2.5 Z M 47.14405649382126 2.5 L 54.28811298764252 2.5 L 54.28811298764252 5.5 L 65.28811298764252 0 L 54.28811298764252 -5.5 L 54.28811298764252 -2.5 L 47.14405649382126 -2.5 Z"/><text text-anchor="middle" pointer-events="none" font-size="8px" fill="#000000" x="47.14405649382126" y="3" transform="rotate(180 47.14405649382126 0)" font-family="sans-serif"/></g><g class="relationship" transform="translate(-38.29122172735475 150.53760919513113) rotate(300.4142345267151)"><path class="outline" fill="#FF756E" stroke="none" d="M 40 2.5 L 81.3727017916621 2.5 L 81.3727017916621 -2.5 L 40 -2.5 Z M 143.3805142916621 2.5 L 184.7532160833242 2.5 L 184.7532160833242 5.5 L 195.7532160833242 0 L 184.7532160833242 -5.5 L 184.7532160833242 -2.5 L 143.3805142916621 -2.5 Z"/><text text-anchor="middle" pointer-events="none" font-size="8px" fill="#000000" x="112.3766080416621" y="3" font-family="sans-serif">MANAGER_OF</text></g><g class="relationship" transform="translate(-38.29122172735475 150.53760919513113) rotate(264.70874090924724)"><path class="outline" fill="#FF756E" stroke="none" d="M 40 2.5 L 94.22573826926896 2.5 L 94.22573826926896 -2.5 L 40 -2.5 Z M 156.23355076926896 2.5 L 210.45928903853792 2.5 L 210.45928903853792 5.5 L 221.45928903853792 0 L 210.45928903853792 -5.5 L 210.45928903853792 -2.5 L 156.23355076926896 -2.5 Z"/><text text-anchor="middle" pointer-events="none" font-size="8px" fill="#000000" x="125.22964451926896" y="3" transform="rotate(180 125.22964451926896 0)" font-family="sans-serif">MANAGER_OF</text></g><g class="relationship" transform="translate(-38.29122172735475 150.53760919513113) rotate(305.9871370062223)"><path class="outline" fill="#FF756E" stroke="none" d="M 40 2.5 L 41.35179726720736 2.5 L 41.35179726720736 -2.5 L 40 -2.5 Z M 95.80101601720736 2.5 L 97.15281328441472 2.5 L 97.15281328441472 5.5 L 108.15281328441472 0 L 97.15281328441472 -5.5 L 97.15281328441472 -2.5 L 95.80101601720736 -2.5 Z"/><text text-anchor="middle" pointer-events="none" font-size="8px" fill="#000000" x="68.57640664220736" y="3" font-family="sans-serif">MANAGER…</text></g><g class="relationship" transform="translate(-38.29122172735475 150.53760919513113) rotate(496.05903434982866)"><path class="outline" fill="#FF756E" stroke="none" d="M 40 2.5 L 68.192064692536 2.5 L 68.192064692536 -2.5 L 40 -2.5 Z M 130.199877192536 2.5 L 158.391941885072 2.5 L 158.391941885072 5.5 L 169.391941885072 0 L 158.391941885072 -5.5 L 158.391941885072 -2.5 L 130.199877192536 -2.5 Z"/><text text-anchor="middle" pointer-events="none" font-size="8px" fill="#000000" x="99.195970942536" y="3" transform="rotate(180 99.195970942536 0)" font-family="sans-serif">MANAGER_OF</text></g><g class="relationship" transform="translate(-38.29122172735475 150.53760919513113) rotate(227.9201587335042)"><path class="outline" fill="#FF756E" stroke="none" d="M 40 2.5 L 73.35510220316382 2.5 L 73.35510220316382 -2.5 L 40 -2.5 Z M 135.36291470316382 2.5 L 168.71801690632765 2.5 L 168.71801690632765 5.5 L 179.71801690632765 0 L 168.71801690632765 -5.5 L 168.71801690632765 -2.5 L 135.36291470316382 -2.5 Z"/><text text-anchor="middle" pointer-events="none" font-size="8px" fill="#000000" x="104.35900845316382" y="3" transform="rotate(180 104.35900845316382 0)" font-family="sans-serif">MANAGER_OF</text></g><g class="relationship" transform="translate(-38.29122172735475 150.53760919513113) rotate(501.45120511808557)"><path class="outline" fill="#FF756E" stroke="none" d="M 40 2.5 L 41.92289169411924 2.5 L 41.92289169411924 -2.5 L 40 -2.5 Z M 67.92289169411924 2.5 L 69.84578338823847 2.5 L 69.84578338823847 5.5 L 80.84578338823847 0 L 69.84578338823847 -5.5 L 69.84578338823847 -2.5 L 67.92289169411924 -2.5 Z"/><text text-anchor="middle" pointer-events="none" font-size="8px" fill="#000000" x="54.92289169411924" y="3" transform="rotate(180 54.92289169411924 0)" font-family="sans-serif">MA…</text></g><g class="relationship" transform="translate(-38.29122172735475 150.53760919513113) rotate(521.4090297577236)"><path class="outline" fill="#FF756E" stroke="none" d="M 40 2.5 L 60.16529665475741 2.5 L 60.16529665475741 -2.5 L 40 -2.5 Z M 122.17310915475741 2.5 L 142.33840580951482 2.5 L 142.33840580951482 5.5 L 153.33840580951482 0 L 142.33840580951482 -5.5 L 142.33840580951482 -2.5 L 122.17310915475741 -2.5 Z"/><text text-anchor="middle" pointer-events="none" font-size="8px" fill="#000000" x="91.16920290475741" y="3" transform="rotate(180 91.16920290475741 0)" font-family="sans-serif">MANAGER_OF</text></g><g class="relationship" transform="translate(-38.29122172735475 150.53760919513113) rotate(477.2456115131597)"><path class="outline" fill="#FF756E" stroke="none" d="M 40 2.5 L 92.34147644841767 2.5 L 92.34147644841767 -2.5 L 40 -2.5 Z M 154.34928894841767 2.5 L 206.69076539683533 2.5 L 206.69076539683533 5.5 L 217.69076539683533 0 L 206.69076539683533 -5.5 L 206.69076539683533 -2.5 L 154.34928894841767 -2.5 Z"/><text text-anchor="middle" pointer-events="none" font-size="8px" fill="#000000" x="123.34538269841767" y="3" transform="rotate(180 123.34538269841767 0)" font-family="sans-serif">MANAGER_OF</text></g><g class="relationship" transform="translate(-38.29122172735475 150.53760919513113) rotate(453.51169722002476)"><path class="outline" fill="#FF756E" stroke="none" d="M 40 2.5 L 39.29762487251257 2.5 L 39.29762487251257 -2.5 L 40 -2.5 Z M 39.29762487251257 2.5 L 38.59524974502514 2.5 L 38.59524974502514 5.5 L 49.59524974502514 0 L 38.59524974502514 -5.5 L 38.59524974502514 -2.5 L 39.29762487251257 -2.5 Z"/><text text-anchor="middle" pointer-events="none" font-size="8px" fill="#000000" x="39.29762487251257" y="3" transform="rotate(180 39.29762487251257 0)" font-family="sans-serif"/></g><g class="relationship" transform="translate(-38.29122172735475 150.53760919513113) rotate(245.33094557655068)"><path class="outline" fill="#FF756E" stroke="none" d="M 40 2.5 L 98.7511586227356 2.5 L 98.7511586227356 -2.5 L 40 -2.5 Z M 160.7589711227356 2.5 L 219.5101297454712 2.5 L 219.5101297454712 5.5 L 230.5101297454712 0 L 219.5101297454712 -5.5 L 219.5101297454712 -2.5 L 160.7589711227356 -2.5 Z"/><text text-anchor="middle" pointer-events="none" font-size="8px" fill="#000000" x="129.7550648727356" y="3" transform="rotate(180 129.7550648727356 0)" font-family="sans-serif">MANAGER_OF</text></g><g class="relationship" transform="translate(-38.29122172735475 150.53760919513113) rotate(373.8816133402453)"><path class="outline" fill="#FF756E" stroke="none" d="M 40 2.5 L 88.32347909439393 2.5 L 88.32347909439393 -2.5 L 40 -2.5 Z M 150.33129159439392 2.5 L 198.65477068878786 2.5 L 198.65477068878786 5.5 L 209.65477068878786 0 L 198.65477068878786 -5.5 L 198.65477068878786 -2.5 L 150.33129159439392 -2.5 Z"/><text text-anchor="middle" pointer-events="none" font-size="8px" fill="#000000" x="119.32738534439393" y="3" font-family="sans-serif">MANAGER_OF</text></g><g class="relationship" transform="translate(-38.29122172735475 150.53760919513113) rotate(182.39325379850197)"><path class="outline" fill="#FF756E" stroke="none" d="M 40 2.5 L 82.38218930889879 2.5 L 82.38218930889879 -2.5 L 40 -2.5 Z M 144.39000180889877 2.5 L 186.77219111779758 2.5 L 186.77219111779758 5.5 L 197.77219111779758 0 L 186.77219111779758 -5.5 L 186.77219111779758 -2.5 L 144.39000180889877 -2.5 Z"/><text text-anchor="middle" pointer-events="none" font-size="8px" fill="#000000" x="113.38609555889879" y="3" transform="rotate(180 113.38609555889879 0)" font-family="sans-serif">MANAGER_OF</text></g><g class="relationship" transform="translate(-38.29122172735475 150.53760919513113) rotate(251.59306478857565)"><path class="outline" fill="#FF756E" stroke="none" d="M 40 2.5 L 55.661424490298344 2.5 L 55.661424490298344 -2.5 L 40 -2.5 Z M 117.66923699029834 2.5 L 133.3306614805967 2.5 L 133.3306614805967 5.5 L 144.3306614805967 0 L 133.3306614805967 -5.5 L 133.3306614805967 -2.5 L 117.66923699029834 -2.5 Z"/><text text-anchor="middle" pointer-events="none" font-size="8px" fill="#000000" x="86.66533074029834" y="3" transform="rotate(180 86.66533074029834 0)" font-family="sans-serif">MANAGER_OF</text></g><g class="relationship" transform="translate(-38.29122172735475 150.53760919513113) rotate(525.7858913069695)"><path class="outline" fill="#FF756E" stroke="none" d="M 40 2.5 L 126.6404794132836 2.5 L 126.6404794132836 -2.5 L 40 -2.5 Z M 188.6482919132836 2.5 L 275.2887713265672 2.5 L 275.2887713265672 5.5 L 286.2887713265672 0 L 275.2887713265672 -5.5 L 275.2887713265672 -2.5 L 188.6482919132836 -2.5 Z"/><text text-anchor="middle" pointer-events="none" font-size="8px" fill="#000000" x="157.6443856632836" y="3" transform="rotate(180 157.6443856632836 0)" font-family="sans-serif">MANAGER_OF</text></g><g class="relationship" transform="translate(-38.29122172735475 150.53760919513113) rotate(224.78489089743402)"><path class="outline" fill="#FF756E" stroke="none" d="M 40 2.5 L 41.08590194646308 2.5 L 41.08590194646308 -2.5 L 40 -2.5 Z M 78.19918319646308 2.5 L 79.28508514292616 2.5 L 79.28508514292616 5.5 L 90.28508514292616 0 L 79.28508514292616 -5.5 L 79.28508514292616 -2.5 L 78.19918319646308 -2.5 Z"/><text text-anchor="middle" pointer-events="none" font-size="8px" fill="#000000" x="59.64254257146308" y="3" transform="rotate(180 59.64254257146308 0)" font-family="sans-serif">MANA…</text></g><g class="relationship" transform="translate(-38.29122172735475 150.53760919513113) rotate(471.23436026263244)"><path class="outline" fill="#FF756E" stroke="none" d="M 40 2.5 L 48.853773661894536 2.5 L 48.853773661894536 -2.5 L 40 -2.5 Z M 110.86158616189454 2.5 L 119.71535982378907 2.5 L 119.71535982378907 5.5 L 130.71535982378907 0 L 119.71535982378907 -5.5 L 119.71535982378907 -2.5 L 110.86158616189454 -2.5 Z"/><text text-anchor="middle" pointer-events="none" font-size="8px" fill="#000000" x="79.85767991189454" y="3" transform="rotate(180 79.85767991189454 0)" font-family="sans-serif">MANAGER_OF</text></g><g class="relationship" transform="translate(-38.29122172735475 150.53760919513113) rotate(183.8502673907896)"><path class="outline" fill="#FF756E" stroke="none" d="M 40 2.5 L 42.32075368498106 2.5 L 42.32075368498106 -2.5 L 40 -2.5 Z M 74.09809743498106 2.5 L 76.41885111996211 2.5 L 76.41885111996211 5.5 L 87.41885111996211 0 L 76.41885111996211 -5.5 L 76.41885111996211 -2.5 L 74.09809743498106 -2.5 Z"/><text text-anchor="middle" pointer-events="none" font-size="8px" fill="#000000" x="58.20942555998106" y="3" transform="rotate(180 58.20942555998106 0)" font-family="sans-serif">MAN…</text></g><g class="relationship" transform="translate(-38.29122172735475 150.53760919513113) rotate(203.82229414892367)"><path class="outline" fill="#FF756E" stroke="none" d="M 40 2.5 L 62.678767235484955 2.5 L 62.678767235484955 -2.5 L 40 -2.5 Z M 124.68657973548495 2.5 L 147.3653469709699 2.5 L 147.3653469709699 5.5 L 158.3653469709699 0 L 147.3653469709699 -5.5 L 147.3653469709699 -2.5 L 124.68657973548495 -2.5 Z"/><text text-anchor="middle" pointer-events="none" font-size="8px" fill="#000000" x="93.68267348548495" y="3" transform="rotate(180 93.68267348548495 0)" font-family="sans-serif">MANAGER_OF</text></g><g class="relationship" transform="translate(-354.5906346640742 230.6565437217928) rotate(537.3449072839207)"><path class="outline" fill="#FF756E" stroke="none" d="M 40 2.5 L 41.01965318631244 2.5 L 41.01965318631244 -2.5 L 40 -2.5 Z M 89.69152818631244 2.5 L 90.71118137262488 2.5 L 90.71118137262488 5.5 L 101.71118137262488 0 L 90.71118137262488 -5.5 L 90.71118137262488 -2.5 L 89.69152818631244 -2.5 Z"/><text text-anchor="middle" pointer-events="none" font-size="8px" fill="#000000" x="65.35559068631244" y="3" transform="rotate(180 65.35559068631244 0)" font-family="sans-serif">MANAGE…</text></g></g><g class="layer nodes"><g class="node" transform="translate(507,-51.99945645486925)"><circle class="outline" cx="0" cy="0" r="40" fill="#6DCE9E" stroke="#60B58B" stroke-width="2px"/><text text-anchor="middle" pointer-events="none" y="-5" font-size="10px" fill="#FFFFFF" font-family="sans-serif"> BEGOUGNE</text><text text-anchor="middle" pointer-events="none" y="5" font-size="10px" fill="#FFFFFF" font-family="sans-serif"> DE JUNIAC</text><text text-anchor="middle" pointer-events="none" y="15" font-size="10px" fill="#FFFFFF" font-family="sans-serif"> ALEXANDRE</text></g><g class="node" transform="translate(373.14801709420766,-33.86360753877354)"><circle class="outline" cx="0" cy="0" r="40" fill="#6DCE9E" stroke="#60B58B" stroke-width="2px"/><text text-anchor="middle" pointer-events="none" y="0" font-size="10px" fill="#FFFFFF" font-family="sans-serif"> ALEXANDRE</text><text text-anchor="middle" pointer-events="none" y="10" font-size="10px" fill="#FFFFFF" font-family="sans-serif"> PATRICK</text></g><g class="node" transform="translate(-38.29122172735475,150.53760919513113)"><circle class="outline" cx="0" cy="0" r="40" fill="#6DCE9E" stroke="#60B58B" stroke-width="2px"/><text text-anchor="middle" pointer-events="none" y="0" font-size="10px" fill="#FFFFFF" font-family="sans-serif"> GAGEY</text><text text-anchor="middle" pointer-events="none" y="10" font-size="10px" fill="#FFFFFF" font-family="sans-serif"> FREDERIC</text></g><g class="node" transform="translate(544.4880974835551,56.25966140982281)"><circle class="outline" cx="0" cy="0" r="40" fill="#6DCE9E" stroke="#60B58B" stroke-width="2px"/><text text-anchor="middle" pointer-events="none" y="0" font-size="10px" fill="#FFFFFF" font-family="sans-serif"> TERNER</text><text text-anchor="middle" pointer-events="none" y="10" font-size="10px" fill="#FFFFFF" font-family="sans-serif"> FRANCK</text></g><g class="node" transform="translate(630.0314218540334,83.64786977692033)"><circle class="outline" cx="0" cy="0" r="40" fill="#6DCE9E" stroke="#60B58B" stroke-width="2px"/><text text-anchor="middle" pointer-events="none" y="0" font-size="10px" fill="#FFFFFF" font-family="sans-serif"> SPINETTA</text><text text-anchor="middle" pointer-events="none" y="10" font-size="10px" fill="#FFFFFF" font-family="sans-serif"> JEAN-CYRIL</text></g><g class="node" transform="translate(643.6128337207622,-95.17474687640714)"><circle class="outline" cx="0" cy="0" r="40" fill="#6DCE9E" stroke="#60B58B" stroke-width="2px"/><text text-anchor="middle" pointer-events="none" y="0" font-size="10px" fill="#FFFFFF" font-family="sans-serif"> BOISSY</text><text text-anchor="middle" pointer-events="none" y="10" font-size="10px" fill="#FFFFFF" font-family="sans-serif"> ALEXANDRE</text></g><g class="node" transform="translate(644.1755340024301,-5.173997152402659)"><circle class="outline" cx="0" cy="0" r="40" fill="#6DCE9E" stroke="#60B58B" stroke-width="2px"/><text text-anchor="middle" pointer-events="none" y="5" font-size="10px" fill="#FFFFFF" font-family="sans-serif"> ZACKLAD GUY</text></g><g class="node" transform="translate(594.6021916769911,-170.65869670532305)"><circle class="outline" cx="0" cy="0" r="40" fill="#6DCE9E" stroke="#60B58B" stroke-width="2px"/><text text-anchor="middle" pointer-events="none" y="0" font-size="10px" fill="#FFFFFF" font-family="sans-serif"> LALANNE</text><text text-anchor="middle" pointer-events="none" y="10" font-size="10px" fill="#FFFFFF" font-family="sans-serif"> JEAN-CHRIST…</text></g><g class="node" transform="translate(521.525469818594,-223.16044844832783)"><circle class="outline" cx="0" cy="0" r="40" fill="#6DCE9E" stroke="#60B58B" stroke-width="2px"/><text text-anchor="middle" pointer-events="none" y="0" font-size="10px" fill="#FFFFFF" font-family="sans-serif"> BROSETA</text><text text-anchor="middle" pointer-events="none" y="10" font-size="10px" fill="#FFFFFF" font-family="sans-serif"> XAVIER</text></g><g class="node" transform="translate(408.30072365495585,-223.0854685021874)"><circle class="outline" cx="0" cy="0" r="40" fill="#6DCE9E" stroke="#60B58B" stroke-width="2px"/><text text-anchor="middle" pointer-events="none" y="0" font-size="10px" fill="#FFFFFF" font-family="sans-serif"> VILLEBEUF</text><text text-anchor="middle" pointer-events="none" y="10" font-size="10px" fill="#FFFFFF" font-family="sans-serif"> COLETTE</text></g><g class="node" transform="translate(376.0138266790327,-139.14712634111052)"><circle class="outline" cx="0" cy="0" r="40" fill="#6DCE9E" stroke="#60B58B" stroke-width="2px"/><text text-anchor="middle" pointer-events="none" y="5" font-size="10px" fill="#FFFFFF" font-family="sans-serif"> CHALLON-KE…</text></g><g class="node" transform="translate(464.8472437864706,-153.38278617582972)"><circle class="outline" cx="0" cy="0" r="40" fill="#6DCE9E" stroke="#60B58B" stroke-width="2px"/><text text-anchor="middle" pointer-events="none" y="0" font-size="10px" fill="#FFFFFF" font-family="sans-serif"> LE PAPE</text><text text-anchor="middle" pointer-events="none" y="10" font-size="10px" fill="#FFFFFF" font-family="sans-serif"> JACQUES</text></g><g class="node" transform="translate(443.4997226994827,82.3590551999279)"><circle class="outline" cx="0" cy="0" r="40" fill="#6DCE9E" stroke="#60B58B" stroke-width="2px"/><text text-anchor="middle" pointer-events="none" y="0" font-size="10px" fill="#FFFFFF" font-family="sans-serif"> RIOLACCI</text><text text-anchor="middle" pointer-events="none" y="10" font-size="10px" fill="#FFFFFF" font-family="sans-serif"> PIERRE-FRA…</text></g><g class="node" transform="translate(512.4238341178573,140.13572437567035)"><circle class="outline" cx="0" cy="0" r="40" fill="#6DCE9E" stroke="#60B58B" stroke-width="2px"/><text text-anchor="middle" pointer-events="none" y="0" font-size="10px" fill="#FFFFFF" font-family="sans-serif"> BOOTSMA</text><text text-anchor="middle" pointer-events="none" y="10" font-size="10px" fill="#FFFFFF" font-family="sans-serif"> PIETER DIRK</text></g><g class="node" transform="translate(82.31898875580401,114.22326368907063)"><circle class="outline" cx="0" cy="0" r="40" fill="#6DCE9E" stroke="#60B58B" stroke-width="2px"/><text text-anchor="middle" pointer-events="none" y="0" font-size="10px" fill="#FFFFFF" font-family="sans-serif"> MAGNE</text><text text-anchor="middle" pointer-events="none" y="10" font-size="10px" fill="#FFFFFF" font-family="sans-serif"> CHRISTIAN</text></g><g class="node" transform="translate(-67.41627035875499,393.2915016624541)"><circle class="outline" cx="0" cy="0" r="40" fill="#6DCE9E" stroke="#60B58B" stroke-width="2px"/><text text-anchor="middle" pointer-events="none" y="0" font-size="10px" fill="#FFFFFF" font-family="sans-serif"> CARUEL</text><text text-anchor="middle" pointer-events="none" y="10" font-size="10px" fill="#FFFFFF" font-family="sans-serif"> MICHEL</text></g><g class="node" transform="translate(115.35057885422484,197.18279283170898)"><circle class="outline" cx="0" cy="0" r="40" fill="#6DCE9E" stroke="#60B58B" stroke-width="2px"/><text text-anchor="middle" pointer-events="none" y="5" font-size="10px" fill="#FFFFFF" font-family="sans-serif"> RICHE ALAIN</text></g><g class="node" transform="translate(78.04599665436643,336.989511091076)"><circle class="outline" cx="0" cy="0" r="40" fill="#6DCE9E" stroke="#60B58B" stroke-width="2px"/><text text-anchor="middle" pointer-events="none" y="0" font-size="10px" fill="#FFFFFF" font-family="sans-serif"> DESERT</text><text text-anchor="middle" pointer-events="none" y="10" font-size="10px" fill="#FFFFFF" font-family="sans-serif"> FLORENCE</text></g><g class="node" transform="translate(21.623504941127415,406.9169848435521)"><circle class="outline" cx="0" cy="0" r="40" fill="#6DCE9E" stroke="#60B58B" stroke-width="2px"/><text text-anchor="middle" pointer-events="none" y="5" font-size="10px" fill="#FFFFFF" font-family="sans-serif"> MALKA ALAIN</text></g><g class="node" transform="translate(45.359192068461994,253.39054313054422)"><circle class="outline" cx="0" cy="0" r="40" fill="#6DCE9E" stroke="#60B58B" stroke-width="2px"/><text text-anchor="middle" pointer-events="none" y="5" font-size="10px" fill="#FFFFFF" font-family="sans-serif"> DELILE BRUNO</text></g><g class="node" transform="translate(148.1730965599936,280.81828542159246)"><circle class="outline" cx="0" cy="0" r="40" fill="#6DCE9E" stroke="#60B58B" stroke-width="2px"/><text text-anchor="middle" pointer-events="none" y="0" font-size="10px" fill="#FFFFFF" font-family="sans-serif"> SENEQUE</text><text text-anchor="middle" pointer-events="none" y="10" font-size="10px" fill="#FFFFFF" font-family="sans-serif"> J-CLAUDE</text></g><g class="node" transform="translate(-10.8585510576016,323.46397258918864)"><circle class="outline" cx="0" cy="0" r="40" fill="#6DCE9E" stroke="#60B58B" stroke-width="2px"/><text text-anchor="middle" pointer-events="none" y="0" font-size="10px" fill="#FFFFFF" font-family="sans-serif"> COUQUE</text><text text-anchor="middle" pointer-events="none" y="10" font-size="10px" fill="#FFFFFF" font-family="sans-serif"> FRANCIS</text></g><g class="node" transform="translate(137.91769037675525,43.33328808892531)"><circle class="outline" cx="0" cy="0" r="40" fill="#6DCE9E" stroke="#60B58B" stroke-width="2px"/><text text-anchor="middle" pointer-events="none" y="0" font-size="10px" fill="#FFFFFF" font-family="sans-serif"> BERNARD</text><text text-anchor="middle" pointer-events="none" y="10" font-size="10px" fill="#FFFFFF" font-family="sans-serif"> ALAIN HERVE</text></g><g class="node" transform="translate(171.23572346322248,126.75884288973772)"><circle class="outline" cx="0" cy="0" r="40" fill="#6DCE9E" stroke="#60B58B" stroke-width="2px"/><text text-anchor="middle" pointer-events="none" y="0" font-size="10px" fill="#FFFFFF" font-family="sans-serif"> VERSPYCK</text><text text-anchor="middle" pointer-events="none" y="10" font-size="10px" fill="#FFFFFF" font-family="sans-serif"> MARC</text></g><g class="node" transform="translate(-7.634345576731873,-38.767015479449896)"><circle class="outline" cx="0" cy="0" r="40" fill="#6DCE9E" stroke="#60B58B" stroke-width="2px"/><text text-anchor="middle" pointer-events="none" y="5" font-size="10px" fill="#FFFFFF" font-family="sans-serif"> RIGAIL ANNE</text></g><g class="node" transform="translate(-39.781703699902,45.2600465334315)"><circle class="outline" cx="0" cy="0" r="40" fill="#6DCE9E" stroke="#60B58B" stroke-width="2px"/><text text-anchor="middle" pointer-events="none" y="0" font-size="10px" fill="#FFFFFF" font-family="sans-serif"> STUBLER</text><text text-anchor="middle" pointer-events="none" y="10" font-size="10px" fill="#FFFFFF" font-family="sans-serif"> NATHALIE</text></g><g class="node" transform="translate(81.05837968020862,-52.77311737256943)"><circle class="outline" cx="0" cy="0" r="40" fill="#6DCE9E" stroke="#60B58B" stroke-width="2px"/><text text-anchor="middle" pointer-events="none" y="0" font-size="10px" fill="#FFFFFF" font-family="sans-serif"> SCHRAMM</text><text text-anchor="middle" pointer-events="none" y="10" font-size="10px" fill="#FFFFFF" font-family="sans-serif"> ERIC</text></g><g class="node" transform="translate(-62.40265248624515,-109.80754388304118)"><circle class="outline" cx="0" cy="0" r="40" fill="#6DCE9E" stroke="#60B58B" stroke-width="2px"/><text text-anchor="middle" pointer-events="none" y="0" font-size="10px" fill="#FFFFFF" font-family="sans-serif"> LAURENT</text><text text-anchor="middle" pointer-events="none" y="10" font-size="10px" fill="#FFFFFF" font-family="sans-serif"> GILLES</text></g><g class="node" transform="translate(48.763906468373925,30.6599184478036)"><circle class="outline" cx="0" cy="0" r="40" fill="#6DCE9E" stroke="#60B58B" stroke-width="2px"/><text text-anchor="middle" pointer-events="none" y="0" font-size="10px" fill="#FFFFFF" font-family="sans-serif"> MINGUEZ</text><text text-anchor="middle" pointer-events="none" y="10" font-size="10px" fill="#FFFFFF" font-family="sans-serif"> DANIEL</text></g><g class="node" transform="translate(-189.0649689625213,295.8382026938071)"><circle class="outline" cx="0" cy="0" r="40" fill="#6DCE9E" stroke="#60B58B" stroke-width="2px"/><text text-anchor="middle" pointer-events="none" y="0" font-size="10px" fill="#FFFFFF" font-family="sans-serif"> BARRAUD</text><text text-anchor="middle" pointer-events="none" y="10" font-size="10px" fill="#FFFFFF" font-family="sans-serif"> YANN</text></g><g class="node" transform="translate(-185.53866153971074,-12.53966825931952)"><circle class="outline" cx="0" cy="0" r="40" fill="#6DCE9E" stroke="#60B58B" stroke-width="2px"/><text text-anchor="middle" pointer-events="none" y="0" font-size="10px" fill="#FFFFFF" font-family="sans-serif"> BANDET</text><text text-anchor="middle" pointer-events="none" y="10" font-size="10px" fill="#FFFFFF" font-family="sans-serif"> PIERRE-OLIVI…</text></g><g class="node" transform="translate(-132.80201648746228,225.84639378584063)"><circle class="outline" cx="0" cy="0" r="40" fill="#6DCE9E" stroke="#60B58B" stroke-width="2px"/><text text-anchor="middle" pointer-events="none" y="0" font-size="10px" fill="#FFFFFF" font-family="sans-serif"> DELOISON</text><text text-anchor="middle" pointer-events="none" y="10" font-size="10px" fill="#FFFFFF" font-family="sans-serif"> SONYA</text></g><g class="node" transform="translate(-221.540971590591,212.175814360645)"><circle class="outline" cx="0" cy="0" r="40" fill="#6DCE9E" stroke="#60B58B" stroke-width="2px"/><text text-anchor="middle" pointer-events="none" y="0" font-size="10px" fill="#FFFFFF" font-family="sans-serif"> BERAGNES</text><text text-anchor="middle" pointer-events="none" y="10" font-size="10px" fill="#FFFFFF" font-family="sans-serif"> THIERRY</text></g><g class="node" transform="translate(-156.26355409241316,379.63815342659956)"><circle class="outline" cx="0" cy="0" r="40" fill="#6DCE9E" stroke="#60B58B" stroke-width="2px"/><text text-anchor="middle" pointer-events="none" y="0" font-size="10px" fill="#FFFFFF" font-family="sans-serif"> GRIGAUX</text><text text-anchor="middle" pointer-events="none" y="10" font-size="10px" fill="#FFFFFF" font-family="sans-serif"> DELPHINE</text></g><g class="node" transform="translate(-43.779137960899924,239.96462721701877)"><circle class="outline" cx="0" cy="0" r="40" fill="#6DCE9E" stroke="#60B58B" stroke-width="2px"/><text text-anchor="middle" pointer-events="none" y="0" font-size="10px" fill="#FFFFFF" font-family="sans-serif"> HAMMOUDA</text><text text-anchor="middle" pointer-events="none" y="10" font-size="10px" fill="#FFFFFF" font-family="sans-serif"> AMEL</text></g><g class="node" transform="translate(-151.19574572126135,-95.28407161561641)"><circle class="outline" cx="0" cy="0" r="40" fill="#6DCE9E" stroke="#60B58B" stroke-width="2px"/><text text-anchor="middle" pointer-events="none" y="0" font-size="10px" fill="#FFFFFF" font-family="sans-serif"> BRACHET</text><text text-anchor="middle" pointer-events="none" y="10" font-size="10px" fill="#FFFFFF" font-family="sans-serif"> ANNE</text></g><g class="node" transform="translate(204.07201255216881,210.43391289778066)"><circle class="outline" cx="0" cy="0" r="40" fill="#6DCE9E" stroke="#60B58B" stroke-width="2px"/><text text-anchor="middle" pointer-events="none" y="0" font-size="10px" fill="#FFFFFF" font-family="sans-serif"> MUGUET</text><text text-anchor="middle" pointer-events="none" y="10" font-size="10px" fill="#FFFFFF" font-family="sans-serif"> KARINE</text></g><g class="node" transform="translate(-275.8560169445687,140.60871487795498)"><circle class="outline" cx="0" cy="0" r="40" fill="#6DCE9E" stroke="#60B58B" stroke-width="2px"/><text text-anchor="middle" pointer-events="none" y="0" font-size="10px" fill="#FFFFFF" font-family="sans-serif"> BALDOUS</text><text text-anchor="middle" pointer-events="none" y="10" font-size="10px" fill="#FFFFFF" font-family="sans-serif"> BERYL</text></g><g class="node" transform="translate(-96.49618821129285,-24.36228971415348)"><circle class="outline" cx="0" cy="0" r="40" fill="#6DCE9E" stroke="#60B58B" stroke-width="2px"/><text text-anchor="middle" pointer-events="none" y="0" font-size="10px" fill="#FFFFFF" font-family="sans-serif"> LAINE</text><text text-anchor="middle" pointer-events="none" y="10" font-size="10px" fill="#FFFFFF" font-family="sans-serif"> ADELAIDE</text></g><g class="node" transform="translate(-354.5906346640742,230.6565437217928)"><circle class="outline" cx="0" cy="0" r="40" fill="#6DCE9E" stroke="#60B58B" stroke-width="2px"/><text text-anchor="middle" pointer-events="none" y="0" font-size="10px" fill="#FFFFFF" font-family="sans-serif"> MORVAN</text><text text-anchor="middle" pointer-events="none" y="10" font-size="10px" fill="#FFFFFF" font-family="sans-serif"> MARIE-HELE…</text></g><g class="node" transform="translate(-130.76191120420285,58.75866281647707)"><circle class="outline" cx="0" cy="0" r="40" fill="#6DCE9E" stroke="#60B58B" stroke-width="2px"/><text text-anchor="middle" pointer-events="none" y="0" font-size="10px" fill="#FFFFFF" font-family="sans-serif"> LAMARRIGUE</text><text text-anchor="middle" pointer-events="none" y="10" font-size="10px" fill="#FFFFFF" font-family="sans-serif"> STEPHANE</text></g><g class="node" transform="translate(-100.1215286250898,309.66255139055716)"><circle class="outline" cx="0" cy="0" r="40" fill="#6DCE9E" stroke="#60B58B" stroke-width="2px"/><text text-anchor="middle" pointer-events="none" y="0" font-size="10px" fill="#FFFFFF" font-family="sans-serif"> LECLAIR</text><text text-anchor="middle" pointer-events="none" y="10" font-size="10px" fill="#FFFFFF" font-family="sans-serif"> GILLES</text></g><g class="node" transform="translate(-165.42248086942226,141.98152541319283)"><circle class="outline" cx="0" cy="0" r="40" fill="#6DCE9E" stroke="#60B58B" stroke-width="2px"/><text text-anchor="middle" pointer-events="none" y="0" font-size="10px" fill="#FFFFFF" font-family="sans-serif"> ROHDE</text><text text-anchor="middle" pointer-events="none" y="10" font-size="10px" fill="#FFFFFF" font-family="sans-serif"> MICHAEL</text></g><g class="node" transform="translate(-219.75635223888315,70.4175911762412)"><circle class="outline" cx="0" cy="0" r="40" fill="#6DCE9E" stroke="#60B58B" stroke-width="2px"/><text text-anchor="middle" pointer-events="none" y="0" font-size="10px" fill="#FFFFFF" font-family="sans-serif"> GATEAU</text><text text-anchor="middle" pointer-events="none" y="10" font-size="10px" fill="#FFFFFF" font-family="sans-serif"> GILLES</text></g><g class="node" transform="translate(-496.14968755809434,237.2211053806533)"><circle class="outline" cx="0" cy="0" r="40" fill="#6DCE9E" stroke="#60B58B" stroke-width="2px"/><text text-anchor="middle" pointer-events="none" y="0" font-size="10px" fill="#FFFFFF" font-family="sans-serif"> FALL</text><text text-anchor="middle" pointer-events="none" y="10" font-size="10px" fill="#FFFFFF" font-family="sans-serif"> MAME-MOR</text></g></g></svg>